v 0.0 0.0 10.0
v 10.0 0.0 10.0
v 10.0 10.0 10.0
v 0.0 10.0 10.0
v 10.0 10.0 0.0
v 10.0 0.0 0.0
v 0.0 0.0 0.0
v 0.0 10.0 0.0
f 1 2 3
f 1 3 4
f 5 6 7
f 5 7 8
f 6 5 3
f 6 3 2
f 7 1 4
f 7 4 8
f 7 6 2
f 7 2 1
f 8 4 3
f 8 3 5
v 20.0 0.0 10.0
v 30.0 0.0 10.0
v 30.0 10.0 10.0
v 20.0 10.0 10.0
v 30.0 10.0 0.0
v 30.0 0.0 0.0
v 20.0 0.0 0.0
v 20.0 10.0 0.0
f 9 10 11
f 9 11 12
f 13 14 15
f 13 15 16
f 14 13 11
f 14 11 10
f 15 9 12
f 15 12 16
f 15 14 10
f 15 10 9
f 16 12 11
f 16 11 13
v 40.0 0.0 10.0
v 50.0 0.0 10.0
v 50.0 10.0 10.0
v 40.0 10.0 10.0
v 50.0 10.0 0.0
v 50.0 0.0 0.0
v 40.0 0.0 0.0
v 40.0 10.0 0.0
f 17 18 19
f 17 19 20
f 21 22 23
f 21 23 24
f 22 21 19
f 22 19 18
f 23 17 20
f 23 20 24
f 23 22 18
f 23 18 17
f 24 20 19
f 24 19 21
v 60.0 0.0 10.0
v 70.0 0.0 10.0
v 70.0 10.0 10.0
v 60.0 10.0 10.0
v 70.0 10.0 0.0
v 70.0 0.0 0.0
v 60.0 0.0 0.0
v 60.0 10.0 0.0
f 25 26 27
f 25 27 28
f 29 30 31
f 29 31 32
f 30 29 27
f 30 27 26
f 31 25 28
f 31 28 32
f 31 30 26
f 31 26 25
f 32 28 27
f 32 27 29
v 80.0 0.0 10.0
v 90.0 0.0 10.0
v 90.0 10.0 10.0
v 80.0 10.0 10.0
v 90.0 10.0 0.0
v 90.0 0.0 0.0
v 80.0 0.0 0.0
v 80.0 10.0 0.0
f 33 34 35
f 33 35 36
f 37 38 39
f 37 39 40
f 38 37 35
f 38 35 34
f 39 33 36
f 39 36 40
f 39 38 34
f 39 34 33
f 40 36 35
f 40 35 37
v 100.0 0.0 10.0
v 110.0 0.0 10.0
v 110.0 10.0 10.0
v 100.0 10.0 10.0
v 110.0 10.0 0.0
v 110.0 0.0 0.0
v 100.0 0.0 0.0
v 100.0 10.0 0.0
f 41 42 43
f 41 43 44
f 45 46 47
f 45 47 48
f 46 45 43
f 46 43 42
f 47 41 44
f 47 44 48
f 47 46 42
f 47 42 41
f 48 44 43
f 48 43 45
v 120.0 0.0 10.0
v 130.0 0.0 10.0
v 130.0 10.0 10.0
v 120.0 10.0 10.0
v 130.0 10.0 0.0
v 130.0 0.0 0.0
v 120.0 0.0 0.0
v 120.0 10.0 0.0
f 49 50 51
f 49 51 52
f 53 54 55
f 53 55 56
f 54 53 51
f 54 51 50
f 55 49 52
f 55 52 56
f 55 54 50
f 55 50 49
f 56 52 51
f 56 51 53
v 140.0 0.0 10.0
v 150.0 0.0 10.0
v 150.0 10.0 10.0
v 140.0 10.0 10.0
v 150.0 10.0 0.0
v 150.0 0.0 0.0
v 140.0 0.0 0.0
v 140.0 10.0 0.0
f 57 58 59
f 57 59 60
f 61 62 63
f 61 63 64
f 62 61 59
f 62 59 58
f 63 57 60
f 63 60 64
f 63 62 58
f 63 58 57
f 64 60 59
f 64 59 61
v 160.0 0.0 10.0
v 170.0 0.0 10.0
v 170.0 10.0 10.0
v 160.0 10.0 10.0
v 170.0 10.0 0.0
v 170.0 0.0 0.0
v 160.0 0.0 0.0
v 160.0 10.0 0.0
f 65 66 67
f 65 67 68
f 69 70 71
f 69 71 72
f 70 69 67
f 70 67 66
f 71 65 68
f 71 68 72
f 71 70 66
f 71 66 65
f 72 68 67
f 72 67 69
v 180.0 0.0 10.0
v 190.0 0.0 10.0
v 190.0 10.0 10.0
v 180.0 10.0 10.0
v 190.0 10.0 0.0
v 190.0 0.0 0.0
v 180.0 0.0 0.0
v 180.0 10.0 0.0
f 73 74 75
f 73 75 76
f 77 78 79
f 77 79 80
f 78 77 75
f 78 75 74
f 79 73 76
f 79 76 80
f 79 78 74
f 79 74 73
f 80 76 75
f 80 75 77
